<!-- Official Hermes Agent mark from lobehub/lobe-icons (MIT) -->
<svg fill="currentColor" fill-rule="evenodd" height="1em" style="flex:none;line-height:1" viewBox="0 0 24 24" width="1em" xmlns="http://www.w3.org/2000/svg"><title>Hermes Agent</title><path d="M5.938 12.835c.127-.039.285.02.373.143.028.038.036.092.046.14.003.014-.02.033-.04.05-.124-.098-.24-.194-.354-.291-.011-.01-.016-.027-.025-.042zM8.396 9.412c.195-.032.39-.06.588-.05a.54.54 0 01.148.026c.202.071.402.147.601.224.028.01.05.036.075.055l-.013.027a9.203 9.203 0 01-.26-.089c-.115-.038-.213-.077-.315-.098-.25-.05-.25-.046-.292-.014l.574.144c.275.139.55.276.823.417.042.022.09.057.107.098.026.06.063.076.117.072.066-.006.132-.017.213-.027l-.04.086c.051.08.142.02.216.064-.074.13-.247.09-.334.199l.061.074-.12.087c0 .106-.038.168-.306.243l.026.085-.196.042.07.124h-.25l-.007.137c-.081-.01-.161-.018-.244-.027l-.053.123c-.027-.008-.052-.011-.073-.023-.067-.038-.128-.056-.195.006-.019.017-.063.014-.093.008-.026-.006-.05-.029-.07-.042-.11.095-.11.095-.208.003-.057.046-.12.074-.186.011-.063.027-.123-.02-.178-.014-.07.007-.097-.035-.133-.07l-.13.033c-.013-.236-.194-.19-.34-.203.005-.072.05-.092.095-.094a.474.474 0 01.159.022c.164.05.32.12.496.138.203.021.405.029.601-.015.265-.059.52-.149.707-.365.049-.056.083-.127.117-.195.019-.038.02-.084-.02-.116a1.397 1.397 0 00-.382-.217c.024.12-.031.182-.115.221 0 .014-.004.025 0 .03.08.115.084.16-.007.267a1.39 1.39 0 01-.218.211.477.477 0 01-.641-.05 1.36 1.36 0 01-.133-.152c-.078-.107-.076-.108-.033-.236-.165-.08-.128-.226-.104-.364.008-.05.028-.096.049-.163-.04.014-.067.017-.087.032a.897.897 0 00-.316.357c-.007.016-.01.034-.02.047-.012.015-.034.038-.045.035-.02-.006-.037-.027-.05-.045-.008-.012-.007-.032-.012-.057h-.126l.053-.172a14.82 14.82 0 00-.039-.049l.11-.284c-.06.026-.091.044-.124.051-.03.007-.064 0-.095 0 0-.031-.01-.07.004-.092.149-.22.305-.428.593-.476z"></path><path d="M8.06 10.788c-.003-.038-.004-.075.037-.062.016.006.034.048.028.067-.01.04-.038.032-.064-.005z"></path><path clip-rule="evenodd" d="M11.981.009c.226-.012.453-.011.608-.015l.1.018c.191.022.389.017.579.085.17.06.361.086.515.193.131.092.23.215.348.326.139.132.301.24.453.358.352.274.638.617.889.98.194.282.386.567.534.877a4.493 4.493 0 01.352 1.12c.037.17.061.34.075.512.008.102.049.199.07.3.086.413.087.837.02 1.254-.016.099.028.193.027.29 0 .134.018.267.016.4-.003.21-.023.417-.037.626-.01.154-.003.307-.017.46-.022.234.008.468-.02.702-.022.187-.002.374-.02.562-.012.127.026.254.013.381-.039.38-.046.763-.042 1.145.006.535-.044 1.07-.046 1.606 0 .198-.021.396-.015.595-.016.578-.064 1.155-.083 1.733-.008.238-.04.476-.038.714v.462c-.003.148.006.297.017.444.024.327-.012.65.02.974.012.121-.016.24-.02.361-.004.141.02.282.007.423.01.215-.03.432.013.646.03.15.009.298.02.446a30.2 30.2 0 010 .595c-.005.1-.04.2-.032.3.011.147.022.293.03.44.007.118-.018.235-.007.352.005.057.003.113.005.17.007.205-.005.409.003.614.004.08-.025.159.005.237.027.068.031.152.005.223-.05.135-.061.283-.054.429a8.447 8.447 0 01-.082.836c-.033.22-.064.44-.12.654-.101.394-.222.783-.39 1.155a7.836 7.836 0 01-.62 1.15c-.18.28-.37.554-.591.802-.208.233-.43.454-.678.647-.199.155-.427.27-.648.398-.112.065-.233.119-.35.175l-.183.076c-.04.016-.08.032-.121.045-.023.008-.037.03-.056.046-.02.014-.032.038-.054.05-.08.049-.165.093-.25.136-.056.028-.11.058-.168.082-.044.018-.09.03-.134.049-.027.01-.092-.002-.12-.017-.03-.016-.065-.022-.098-.033l-.016.003c-.12.014-.24.025-.36.039-.016.002-.031-.004-.048.002l-.048.026c-.054.028-.107.058-.162.081-.059.025-.12.04-.18.062-.12.043-.242.083-.366.114-.268.068-.543.096-.82.113-.111.006-.223.017-.334.018-.39.002-.78 0-1.17 0-.301 0-.602.003-.903-.002-.278-.005-.556-.028-.83-.073a6.106 6.106 0 01-.77-.205 5.04 5.04 0 01-.647-.296 6.18 6.18 0 01-.848-.598A7.177 7.177 0 013.9 19.17a6.975 6.975 0 01-1.082-1.44 8.213 8.213 0 01-.677-1.523c-.054-.168-.095-.338-.14-.51-.114-.434-.137-.881-.153-1.327-.011-.306-.015-.612-.023-.919-.003-.116-.01-.232-.011-.348-.005-.336-.02-.672-.024-1.008-.004-.318-.01-.636-.01-.954 0-.057.002-.114 0-.171-.006-.269-.016-.538-.03-.806-.007-.127-.03-.252-.034-.38-.016-.458-.015-.918.013-1.377.01-.153.043-.303.057-.456.027-.307.102-.607.147-.912.027-.18.082-.359.13-.534.032-.122.063-.244.102-.363.06-.187.134-.367.207-.548.068-.17.156-.332.237-.496.065-.13.124-.264.198-.388.13-.22.278-.428.418-.642.063-.096.113-.2.18-.293.08-.112.168-.219.254-.326.17-.214.358-.415.532-.628.044-.054.085-.11.13-.162.083-.096.174-.186.259-.281.096-.106.192-.213.287-.32.127-.144.269-.276.401-.415.053-.057.108-.111.163-.166.089-.09.174-.185.269-.27.297-.267.609-.517.94-.738.063-.042.116-.095.177-.14.146-.104.301-.198.45-.296.096-.063.19-.133.287-.194.216-.135.434-.268.66-.383.114-.058.233-.104.35-.155.167-.074.339-.137.514-.195.234-.078.473-.134.713-.192.168-.04.336-.075.506-.104.156-.027.312-.047.47-.062.187-.018.375-.022.562-.03zm-.213 2.113a.312.312 0 00-.053.034c-.08.062-.18.104-.23.199l-.008.015.053-.034c.08-.062.18-.104.23-.199l.008-.015zm-1.73.672c.056.055.118.101.17.158.032.036.05.082.07.127l.012.027-.06-.022a.565.565 0 01-.158-.15c-.04-.05-.058-.112-.08-.17l-.008-.025.036.029c0 .007.005.013.01.02.002.003.005.005.008.006zm.172.486c-.022.072-.036.15-.071.213-.024.044-.06.08-.098.114-.022.02-.05.032-.076.047l-.011.005.031-.042a.84.84 0 01.156-.135c.023-.016.049-.026.074-.038.02-.01.04-.02.05-.037.005-.01.004-.021.007-.032 0-.006.002-.011.004-.017 0 .005-.001.007-.002.008 0 .003-.001.004.001.006.002.004.006.007.01.009.002.001.004.002.007.001h-.007c.003 0 .006-.001.008-.002.003-.001.005-.003.008-.005.011-.01.018-.023.023-.036.025-.06.025-.122.016-.183l-.003-.021.038.033c.002.001.003.003.005.004zm1.443.506c.03-.033.064-.063.09-.1.038-.055.058-.12.07-.186.005-.03.005-.06.005-.09l.003-.011c.019.044.016.09.005.136-.012.052-.038.1-.067.143-.014.02-.028.04-.044.058a.656.656 0 01-.108.1c.014-.016.029-.03.046-.05zm-1.798.42c.073-.03.14.006.22.013.03.003.06-.002.088.006.028.009.044.034.064.053l.015.016-.022.001c-.043.002-.084-.015-.123-.03-.034-.012-.067-.026-.102-.033-.048-.01-.09-.016-.14-.026z" fill-rule="evenodd" clip-rule="evenodd"></path><path d="M14.728 11.651c.01-.022.014-.044.03-.06l.123-.124.159.327-.312-.143z"></path><path clip-rule="evenodd" d="M10.628 10.765c.101-.086.215-.144.342-.173.105-.024.207-.021.308.013.07.024.13.06.184.107l-.016.017a1.333 1.333 0 00-.27-.116c-.074-.02-.147-.015-.22-.002-.103.019-.193.067-.278.13a1.217 1.217 0 00-.18.159l-.017.017-.014-.016c.047-.048.098-.093.16-.136z"></path><path d="M10.514 10.784c.075-.084.193-.12.309-.146.06-.014.118-.016.178-.014l-.002.024a.255.255 0 00-.118.016c-.111.04-.199.11-.266.204a.26.26 0 00-.046.104l-.022-.02c.002-.05.004-.101.006-.152 0-.01.002-.014-.008-.016h-.031z"></path></svg>
